custom-analysis
version=1
nRows=16
nColumns=42
inDegrees=no

This file contains tibia displacement and acting force.

Units are S.I. units (seconds, meters, Newtons, ...)
Angles are in degrees.

endheader
time	APT	SIT	knee_angle	aACL_R_force	pACL_R_force	aPCL_R_force	pPCL_R_force	aMCL_R_force	mMCL_R_force	pMCL_R_force	aLCL_R_force	mLCL_R_force	pLCL_R_force	aACL_R_length	pACL_R_length	aPCL_R_length	pPCL_R_length	aMCL_R_length	mMCL_R_length	pMCL_R_length	aLCL_R_length	mLCL_R_length	pLCL_R_length	aACL_R_strain	pACL_R_strain	aPCL_R_strain	pPCL_R_strain	aMCL_R_strain	mMCL_R_strain	pMCL_R_strain	aLCL_R_strain	mLCL_R_strain	pLCL_R_strain	femur_lat_meniscii_force_r	femur_lat_meniscii_torque_r	femur_med_meniscii_force_r	femur_med_meniscii_torque_r	femur_lat_tibia_force_r	femur_lat_tibia_torque_r	femur_med_tibia_force_r	femur_med_tibia_torque_r
      0.03578780	      0.00093889	     -0.00028737	     60.00037120	      0.00000000	      0.00000000	    760.02097818	    326.95548597	     20.92197939	      0.04584284	      0.00000000	      0.00000000	      0.00000000	      0.00000000	      0.02955849	      0.02282701	      0.03602687	      0.03262191	      0.06118214	      0.05992982	      0.05642984	      0.05373154	      0.04896112	      0.04462758	     -0.04666940	     -0.09983519	      0.15859533	      0.08422391	      0.05437359	      0.00227983	     -0.07077721	     -0.04011739	     -0.13064038	     -0.14739636	     37.41187306	     13.36040481	    149.41945105	     60.79817219	      0.00000000	      0.00000000	    933.28060600	     17.47970913
      0.03703539	      0.00097266	     -0.00029845	     60.00037120	      0.00000000	      0.00000000	    757.84726249	    324.35337505	     19.06863437	     -1.39519155	      0.00000000	      0.00000000	      0.00000000	      0.00000000	      0.02958946	      0.02285098	      0.03601853	      0.03261246	      0.06118322	      0.05992923	      0.05642860	      0.05374708	      0.04897584	      0.04463833	     -0.04567056	     -0.09888995	      0.15832724	      0.08390979	      0.05439233	      0.00226999	     -0.07079770	     -0.03983976	     -0.13037903	     -0.14719088	     40.64844781	     14.59675609	    149.55537555	     60.80612058	      0.00000000	      0.00000000	    946.61096113	     17.69955595
      0.03814676	      0.00100106	     -0.00030646	     60.00037120	      0.00000000	      0.00000000	    756.85192939	    324.90362908	     19.47850921	     -0.56436420	      0.00000000	      0.00000000	      0.00000000	      0.00000000	      0.02961640	      0.02287186	      0.03600994	      0.03260355	      0.06118221	      0.05992734	      0.05642643	      0.05375647	      0.04898438	      0.04464310	     -0.04480164	     -0.09806657	      0.15805103	      0.08361371	      0.05437483	      0.00223835	     -0.07083339	     -0.03967197	     -0.13022738	     -0.14709975	     39.41449961	     14.27814809	    140.33547773	     57.02750525	      0.00000000	      0.00000000	    935.47867276	     17.47117699
      0.03925814	      0.00102746	     -0.00031443	     60.00037120	      0.00000000	      0.00000000	    755.11062260	    323.28883221	     18.12108871	     -1.57827834	      0.00000000	      0.00000000	      0.00000000	      0.00000000	      0.02964343	      0.02289311	      0.03600214	      0.03259600	      0.06118100	      0.05992584	      0.05642495	      0.05376379	      0.04899074	      0.04464551	     -0.04392988	     -0.09722852	      0.15780010	      0.08336274	      0.05435407	      0.00221323	     -0.07085775	     -0.03954133	     -0.13011433	     -0.14705375	     42.46397174	     15.47901653	    139.85573015	     56.77553037	      0.00000000	      0.00000000	    942.38134516	     17.53605923
      0.04036952	      0.00105203	     -0.00032093	     60.00037120	      0.00000000	      0.00000000	    753.91140526	    323.24371152	     17.92149951	     -1.42872947	      0.00000000	      0.00000000	      0.00000000	      0.00000000	      0.02966923	      0.02291335	      0.03599389	      0.03258850	      0.06117835	      0.05992337	      0.05642277	      0.05376791	      0.04899386	      0.04464455	     -0.04309776	     -0.09643050	      0.15753461	      0.08311331	      0.05430838	      0.00217206	     -0.07089358	     -0.03946760	     -0.13005905	     -0.14707200	     42.91068646	     15.75130566	    134.18715684	     54.43645609	      0.00000000	      0.00000000	    937.56006245	     17.43033935
      0.04178755	      0.00108055	     -0.00032833	     60.00037120	      0.00000000	      0.00000000	    752.03484180	    322.03897999	     16.72360909	     -2.25643704	      0.00000000	      0.00000000	      0.00000000	      0.00000000	      0.02970051	      0.02293788	      0.03598416	      0.03258035	      0.06117426	      0.05992016	      0.05642030	      0.05377036	      0.04899494	      0.04464036	     -0.04208886	     -0.09546314	      0.15722189	      0.08284243	      0.05423783	      0.00211835	     -0.07093441	     -0.03942389	     -0.13003976	     -0.14715204	     44.77718823	     16.51474801	    133.03446566	     53.87158387	      0.00000000	      0.00000000	    942.23814217	     17.48494618
      0.04303331	      0.00110333	     -0.00033297	     60.00037120	      0.00000000	      0.00000000	    750.97191959	    322.59820854	     17.05333375	     -1.60792956	      0.00000000	      0.00000000	      0.00000000	      0.00000000	      0.02972556	      0.02295723	      0.03597535	      0.03257339	      0.06116918	      0.05991633	      0.05641739	      0.05376917	      0.04899252	      0.04463330	     -0.04128110	     -0.09470002	      0.15693850	      0.08261128	      0.05415033	      0.00205429	     -0.07098222	     -0.03944515	     -0.13008276	     -0.14728693	     44.61564375	     16.56415944	    125.90925528	     50.95032394	      0.00000000	      0.00000000	    932.84945171	     17.27118961
      0.04427906	      0.00112403	     -0.00033745	     60.00037120	      0.00000000	      0.00000000	    749.17948161	    320.93326925	     15.83422306	     -2.60104902	      0.00000000	      0.00000000	      0.00000000	      0.00000000	      0.02974953	      0.02297580	      0.03596757	      0.03256784	      0.06116431	      0.05991310	      0.05641529	      0.05376658	      0.04898868	      0.04462483	     -0.04050785	     -0.09396762	      0.15668836	      0.08242666	      0.05406642	      0.00200015	     -0.07101675	     -0.03949138	     -0.13015103	     -0.14744886	     47.06280953	     17.53076340	    127.90120664	     51.66702399	      0.00000000	      0.00000000	    940.39339152	     17.33475498
      0.04552481	      0.00114320	     -0.00034021	     60.00037120	      0.00000000	      0.00000000	    748.14259935	    321.49247485	     16.51566412	     -1.67392522	      0.00000000	      0.00000000	      0.00000000	      0.00000000	      0.02977173	      0.02299281	      0.03595899	      0.03256178	      0.06115822	      0.05990890	      0.05641237	      0.05376103	      0.04898185	      0.04461342	     -0.03979186	     -0.09329700	      0.15641239	      0.08222542	      0.05396142	      0.00193001	     -0.07106484	     -0.03959059	     -0.13027221	     -0.14766677	     46.92557710	     17.59771935	    120.87818458	     48.80264198	      0.00000000	      0.00000000	    928.44180558	     17.11026897
      0.04677057	      0.00116086	     -0.00034320	     60.00037120	      0.00000000	      0.00000000	    746.26606802	    319.57313897	     15.43522300	     -2.60594556	      0.00000000	      0.00000000	      0.00000000	      0.00000000	      0.02979348	      0.02300961	      0.03595133	      0.03255690	      0.06115286	      0.05990569	      0.05641054	      0.05375457	      0.04897411	      0.04460113	     -0.03909041	     -0.09263431	      0.15616601	      0.08206306	      0.05386910	      0.00187623	     -0.07109498	     -0.03970603	     -0.13040975	     -0.14790153	     49.75560514	     18.74481555	    124.18503495	     50.06138770	      0.00000000	      0.00000000	    935.63464617	     17.23503281
      0.04801632	      0.00117769	     -0.00034457	     60.00037120	      0.00000000	      0.00000000	    745.18149435	    320.07305446	     16.45012966	     -1.41364589	      0.00000000	      0.00000000	      0.00000000	      0.00000000	      0.02981370	      0.02302497	      0.03594255	      0.03255110	      0.06114658	      0.05990167	      0.05640797	      0.05374531	      0.04896356	      0.04458611	     -0.03843827	     -0.09202885	      0.15588362	      0.08187036	      0.05376080	      0.00180914	     -0.07113731	     -0.03987143	     -0.13059704	     -0.14818854	     49.86961186	     18.89372334	    117.13830169	     47.22974113	      0.00000000	      0.00000000	    921.44518790	     16.96844439
      0.04926207	      0.00119377	     -0.00034643	     60.00037120	      0.00000000	      0.00000000	    743.13227260	    317.81783238	     15.50919108	     -2.27418881	      0.00000000	      0.00000000	      0.00000000	      0.00000000	      0.02983390	      0.02304040	      0.03593454	      0.03254625	      0.06114150	      0.05989900	      0.05640678	      0.05373543	      0.04895238	      0.04457049	     -0.03778693	     -0.09142024	      0.15562612	      0.08170916	      0.05367326	      0.00176436	     -0.07115690	     -0.04004792	     -0.13079552	     -0.14848691	     53.06164135	     20.17951172	    121.71996624	     49.02820879	      0.00000000	      0.00000000	    927.84972110	     17.07645539
      0.05050783	      0.00120974	     -0.00034676	     60.00037120	      0.00000000	      0.00000000	    741.89330385	    318.12209497	     16.71504180	     -0.94652651	      0.00000000	      0.00000000	      0.00000000	      0.00000000	      0.02985288	      0.02305456	      0.03592512	      0.03254013	      0.06113575	      0.05989569	      0.05640496	      0.05372282	      0.04893846	      0.04455219	     -0.03717458	     -0.09086198	      0.15532313	      0.08150589	      0.05357422	      0.00170897	     -0.07118694	     -0.04027323	     -0.13104263	     -0.14883653	     53.70663394	     20.58079323	    115.10377508	     46.39642378	      0.00000000	      0.00000000	    912.19200110	     16.78996343
      0.05175358	      0.00122534	     -0.00034764	     60.00037120	      0.00000000	      0.00000000	    739.76403502	    315.87594374	     15.87773404	     -1.74163196	      0.00000000	      0.00000000	      0.00000000	      0.00000000	      0.02987179	      0.02306864	      0.03591643	      0.03253488	      0.06113143	      0.05989386	      0.05640464	      0.05370976	      0.04892410	      0.04453350	     -0.03656475	     -0.09030677	      0.15504380	      0.08133120	      0.05349976	      0.00167844	     -0.07119215	     -0.04050646	     -0.13129766	     -0.14919377	     57.34478384	     22.05743187	    119.78036593	     48.23150648	      0.00000000	      0.00000000	    917.24831777	     16.94935349
      0.05299933	      0.00124080	     -0.00034701	     60.00037120	      0.00000000	      0.00000000	    738.42529533	    316.07618183	     16.95967382	     -0.55745259	      0.00000000	      0.00000000	      0.00000000	      0.00000000	      0.02988905	      0.02308096	      0.03590656	      0.03252855	      0.06112656	      0.05989149	      0.05640379	      0.05369424	      0.04890728	      0.04451244	     -0.03600828	     -0.08982082	      0.15472631	      0.08112078	      0.05341589	      0.00163888	     -0.07120612	     -0.04078369	     -0.13159628	     -0.14959610	     58.54787253	     22.63778457	    114.93579188	     46.34342868	      0.00000000	      0.00000000	    902.02332392	     16.66786147
      0.05424509	      0.00125578	     -0.00034674	     60.00037120	      0.00000000	      0.00000000	    736.28308511	    313.99779777	     16.36347939	     -1.12584313	      0.00000000	      0.00000000	      0.00000000	      0.00000000	      0.02990604	      0.02309307	      0.03589728	      0.03252290	      0.06112292	      0.05989039	      0.05640422	      0.05367819	      0.04888994	      0.04449093	     -0.03546002	     -0.08934330	      0.15442772	      0.08093328	      0.05335303	      0.00162043	     -0.07119916	     -0.04107041	     -0.13190421	     -0.15000705	     62.52616978	     24.24620129	    118.52670298	     47.76526356	      0.00000000	      0.00000000	    903.95339887	     16.70345073
